<?xml version="1.0" encoding="utf-8"?>
<!-- Generator: Adobe Illustrator 27.5.0, SVG Export Plug-In . SVG Version: 6.00 Build 0)  -->
<svg version="1.1" id="Layer_1" xmlns="http://www.w3.org/2000/svg" xmlns:xlink="http://www.w3.org/1999/xlink" x="0px" y="0px"
	 viewBox="0 0 86 90" style="enable-background:new 0 0 86 90;" xml:space="preserve">
<style type="text/css">
	.st0{fill:url(#Ellipse_3_00000177446065514051021240000004539864491016619149_);}
	.st1{fill:#66615A;}
	.st2{fill:#E5A756;}
</style>
<g id="Group_208" transform="translate(-26 -15)">
	
		<linearGradient id="Ellipse_3_00000140736643230856267280000001825804588211775401_" gradientUnits="userSpaceOnUse" x1="23.6281" y1="106.9592" x2="23.6281" y2="105.9592" gradientTransform="matrix(84 0 0 -87 -1916 9322)">
		<stop  offset="0" style="stop-color:#E6DACA"/>
		<stop  offset="0.809" style="stop-color:#9B9388"/>
		<stop  offset="1" style="stop-color:#736D65"/>
	</linearGradient>
	
		<ellipse id="Ellipse_3" style="fill:url(#Ellipse_3_00000140736643230856267280000001825804588211775401_);" cx="68.76" cy="60.05" rx="42" ry="43.5"/>
	<g id="Group_178" transform="translate(41.75 25.319)">
		<path id="Path_9" class="st1" d="M12.03,53.14h11.96c3.9,0,6.92-1.01,9.07-3.03s3.22-4.88,3.22-8.56V26
			c0-3.68-1.07-6.54-3.22-8.56s-5.17-3.03-9.07-3.03H12.03V7.36h11.74c3.74-0.1,7.46,0.65,10.87,2.22c2.91,1.39,5.31,3.65,6.87,6.47
			c1.65,3.16,2.47,6.69,2.36,10.25v14.97c0.1,3.56-0.71,7.09-2.36,10.25c-1.56,2.82-3.97,5.09-6.89,6.47
			c-3.41,1.56-7.13,2.32-10.88,2.21h-11.7L12.03,53.14z M7.01,7.36h7.41v52.84H7.01V7.36z"/>
		<path id="Path_8" class="st2" d="M15.17,56.29h11.96c3.9,0,6.92-1.01,9.07-3.03s3.22-4.88,3.22-8.56V29.14
			c0-3.68-1.07-6.54-3.22-8.56s-5.17-3.03-9.07-3.03H15.17V10.5h11.74c3.74-0.1,7.46,0.65,10.87,2.22c2.91,1.39,5.31,3.65,6.87,6.47
			c1.65,3.16,2.47,6.69,2.36,10.25v14.97c0.1,3.56-0.71,7.09-2.36,10.25c-1.56,2.82-3.97,5.09-6.89,6.47
			c-3.41,1.56-7.13,2.32-10.88,2.21h-11.7L15.17,56.29z M10.15,10.5h7.41v52.84h-7.41V10.5z"/>
	</g>
</g>
</svg>
